<svg xmlns="http://www.w3.org/2000/svg" viewBox="0 0 53.16 89.1"><defs><style>.cls-1{fill:#f6b823;}.cls-2{fill:#a0a0a0;}.cls-3{fill:#fff;}</style></defs><title>Asset 1</title><g id="Layer_2" data-name="Layer 2"><g id="Layer_1-2" data-name="Layer 1"><g id="Layer_2-2" data-name="Layer 2"><g id="Layer_1-2-2" data-name="Layer 1-2"><path class="cls-1" d="M13.25,78.9c-.83,0-1.67.06-2.49,0-1.45-.13-2.9-.34-4.35-.51a21.3,21.3,0,0,0,1.78-3.71A6.61,6.61,0,0,0,8.29,71,36.06,36.06,0,0,1,6.14,55.4c.24-2.86-.94-5.84-1.5-8.77a4.63,4.63,0,0,0-.39-.91C2.37,41.4,6.4,37.08,3.52,32.25,1.4,28.69,1.84,23.6,1.17,19.18c-.31-2,.27-3.59,2.39-4.36,1.09-.39,2.07-1.07,3.16-1.48,2.16-.81,3.24-2,2.57-4.55a17,17,0,0,1-.25-5C9.16.6,9.78.06,12.87,0s4,.6,4.2,3.55A19.3,19.3,0,0,1,17,8c-.61,4-.67,4,3,5.68,5.25,2.41,5.12,2.4,4.39,8.15-.58,4.59-.32,9.32-3.23,13.37-.38.53.07,1.62,0,2.45C20.79,43,20.37,48.26,20,53.53A18.4,18.4,0,0,0,19.82,57,25.93,25.93,0,0,1,18,69.7c-1,2.5-1.21,4.59,1,6.76,1.72,1.67,1.23,2.42-1.25,2.56-1.49.08-3,0-4.5,0Z"/><path class="cls-1" d="M12.8,89c-3.31,0-6.63-.11-9.93,0C.71,89.1-.19,88.35,0,86.18a17,17,0,0,0,0-3C-.09,81.39.88,81,2.46,81q10.68,0,21.35-.09c1.72,0,2.43.67,2.29,2.35v1.49C26,89.37,26.38,89,21.74,89Z"/><path class="cls-2" d="M51.44,21.88c.73-5.76.86-5.74-4.39-8.15C43.35,12,43.41,12,44,8a19.28,19.28,0,0,0,.08-4.49C43.87.71,43.08,0,40.24,0H39.9c-3.09.05-3.71.6-3.84,3.83a17.13,17.13,0,0,0,.25,5c.67,2.54-.4,3.74-2.57,4.55-1.09.41-2.07,1.08-3.16,1.48-2.12.77-2.7,2.32-2.39,4.36.67,4.41.24,9.51,2.36,13.07,2.88,4.83-1.15,9.15.73,13.47a4.89,4.89,0,0,1,.39.91c.56,2.92,1.74,5.91,1.5,8.77A36,36,0,0,0,35.32,71a6.6,6.6,0,0,1-.1,3.71,21.43,21.43,0,0,1-1.78,3.71c1.45.17,2.9.38,4.35.51h2.49V79h4.5c2.48-.14,3-.89,1.25-2.56-2.24-2.17-2-4.27-1-6.76A26,26,0,0,0,46.86,57,18.3,18.3,0,0,1,47,53.53c.4-5.28.83-10.55,1.21-15.83.06-.82-.4-1.91,0-2.45C51.12,31.25,50.86,26.47,51.44,21.88Zm-4,12.83a2.78,2.78,0,0,0-.25,2.15,4.25,4.25,0,0,1,.07.8q-.34,4.74-.72,9.47-.25,3.18-.49,6.36a3.17,3.17,0,0,1-.07.81,13.48,13.48,0,0,0-.07,2.84,24.76,24.76,0,0,1-1.8,12.21c-1,2.49-1.51,5.16,1.27,7.85a4.79,4.79,0,0,1,.6.67,5.34,5.34,0,0,1-1.2.17H41.29V77.9h-3.4c-1-.08-1.92-.21-2.87-.33a11.74,11.74,0,0,0,1.17-2.64,7.53,7.53,0,0,0,.07-4.31,35.11,35.11,0,0,1-2.09-15.13,19.71,19.71,0,0,0-.9-6.42c-.22-.86-.45-1.76-.61-2.62a3.21,3.21,0,0,0-.34-.89l-.12-.24c-.74-1.69-.39-3.49,0-5.39.47-2.46,1-5.24-.75-8.19-1.36-2.28-1.58-5.3-1.81-8.5-.1-1.39-.21-2.84-.42-4.21-.27-1.77.23-2.72,1.74-3.26A14.61,14.61,0,0,0,32.67,15a14.42,14.42,0,0,1,1.43-.68c1.83-.69,4.16-2,3.18-5.74a15.52,15.52,0,0,1-.23-4.46V3.87C37.18,1.13,37.42,1,39.92,1h.32c2.33,0,2.68.32,2.87,2.64A18.31,18.31,0,0,1,43,7.89v.18c-.66,4.28-.42,4.71,3.62,6.56,2.38,1.11,3.56,1.67,4,2.37s.22,2-.08,4.39v.39c-.12,1-.21,2-.29,2.93C49.89,28.31,49.59,31.71,47.44,34.71Z"/><path class="cls-3" d="M50.49,21.39v.39c-.12,1-.21,2-.29,2.93-.31,3.6-.61,7-2.76,10a2.78,2.78,0,0,0-.25,2.15,4.25,4.25,0,0,1,.07.8q-.34,4.74-.72,9.47-.25,3.18-.49,6.36a3.17,3.17,0,0,1-.07.81,13.48,13.48,0,0,0-.07,2.84,24.76,24.76,0,0,1-1.8,12.21c-1,2.49-1.51,5.16,1.27,7.85a4.79,4.79,0,0,1,.6.67,5.34,5.34,0,0,1-1.2.17H41.29V77.9h-3.4c-1-.08-1.92-.21-2.87-.33a11.74,11.74,0,0,0,1.17-2.64,7.53,7.53,0,0,0,.07-4.31,35.11,35.11,0,0,1-2.09-15.13,19.71,19.71,0,0,0-.9-6.42c-.22-.86-.45-1.76-.61-2.62a3.21,3.21,0,0,0-.34-.89l-.12-.24c-.74-1.69-.39-3.49,0-5.39.47-2.46,1-5.24-.75-8.19-1.36-2.28-1.58-5.3-1.81-8.5-.1-1.39-.21-2.84-.42-4.21-.27-1.77.23-2.72,1.74-3.26A14.61,14.61,0,0,0,32.67,15a14.42,14.42,0,0,1,1.43-.68c1.83-.69,4.16-2,3.18-5.74a15.52,15.52,0,0,1-.23-4.46V3.87C37.18,1.13,37.42,1,39.92,1h.32c2.33,0,2.68.32,2.87,2.64A18.31,18.31,0,0,1,43,7.89v.18c-.66,4.28-.42,4.71,3.62,6.56,2.38,1.11,3.56,1.67,4,2.37S50.79,19,50.49,21.39Z"/><path class="cls-2" d="M50.92,80.88l-.08.09h-.07q-8.89.11-17.8.1H29.48c-1.58,0-2.53.41-2.4,2.21a16.71,16.71,0,0,1,0,3c-.21,2,.57,2.82,2.48,2.82h.36c1.33-.06,2.67-.08,4-.08h5.92v0H50.06c3.28,0,3-.13,3.08-4.28V83.23C53.27,81.58,52.59,80.88,50.92,80.88Zm1.24,2.27a8.36,8.36,0,0,0,0,1v1.48A9.44,9.44,0,0,1,52,87.88a7.2,7.2,0,0,1-1.91.13H33.84c-1.57,0-2.86,0-4.05.08h-.31a2,2,0,0,1-1.29-.32,2,2,0,0,1-.19-1.4,18.4,18.4,0,0,0,0-3.15,1.32,1.32,0,0,1,.14-.89c.11-.12.41-.25,1.28-.25H33c6.37,0,12.2,0,17.81-.1h.06l.09-.07a1.57,1.57,0,0,1,1.07.25A1.45,1.45,0,0,1,52.16,83.15Z"/><path class="cls-3" d="M52.16,83.15a8.36,8.36,0,0,0,0,1v1.48A9.44,9.44,0,0,1,52,87.88a7.2,7.2,0,0,1-1.91.13H33.84c-1.57,0-2.86,0-4.05.08h-.31a2,2,0,0,1-1.29-.32,2,2,0,0,1-.19-1.4,18.4,18.4,0,0,0,0-3.15,1.32,1.32,0,0,1,.14-.89c.11-.12.41-.25,1.28-.25H33c6.37,0,12.2,0,17.81-.1h.06l.09-.07a1.57,1.57,0,0,1,1.07.25A1.45,1.45,0,0,1,52.16,83.15Z"/></g></g></g></g></svg>