<?xml version="1.0" encoding="iso-8859-1"?>
<!-- Generator: Adobe Illustrator 16.0.0, SVG Export Plug-In . SVG Version: 6.00 Build 0)  -->
<!DOCTYPE svg PUBLIC "-//W3C//DTD SVG 1.1//EN" "http://www.w3.org/Graphics/SVG/1.1/DTD/svg11.dtd">
<svg version="1.1" id="Capa_1" xmlns="http://www.w3.org/2000/svg" xmlns:xlink="http://www.w3.org/1999/xlink" x="0px" y="0px"
	 width="229.981px" height="229.982px" viewBox="0 0 229.981 229.982" style="enable-background:new 0 0 229.981 229.982;"
	 xml:space="preserve">
<g>
	<path d="M185.997,218.078h-7.317l2.967-20.062h8.21L185.997,218.078z M203.12,53.123l-2.973,20.058h13.802l3.865-20.058H203.12z
		 M174.364,218.078l5.929-48.687h-55.975l6.909,48.687H174.364z M122.096,189.458l-3.384-20.055h-9.499l4.273,20.055H122.096z
		 M126.913,218.078l-3.375-20.062h-8.222l4.279,20.062H126.913z M102.93,139.873l4.268,20.061h9.921l-3.378-20.061H102.93z
		 M195.39,169.391h-9.493l-2.967,20.061h8.594L195.39,169.391z M187.292,159.94h9.93l3.865-20.056h-10.811L187.292,159.94z
		 M191.529,131.319h11.213l3.866-20.061h-12.094L191.529,131.319z M195.909,101.804h12.514l3.883-20.059h-13.429L195.909,101.804z
		 M101.116,131.319l-2.113-9.924l-34.596,32.32l-5.231-53.46L12.167,74.26l49.231-21.506L71.591,0l35.668,40.196l53.327-6.605
		L149.12,53.123h45.348l-5.929,48.681h-44.922l4.415,9.454h39.354l-5.928,48.675h-58.481l-5.659-39.886l-7.164-1.572l2.16,12.838
		h-11.198V131.319z M74.053,128.139l25.984-24.275l34.731,7.637l-15.061-32.217l18.004-30.65l-35.296,4.368L78.812,26.395
		l-6.747,34.924L39.475,75.554L70.592,92.77L74.053,128.139z M101.201,229.982h99.868v-8.512h-99.868V229.982z"/>
</g>
<g>
</g>
<g>
</g>
<g>
</g>
<g>
</g>
<g>
</g>
<g>
</g>
<g>
</g>
<g>
</g>
<g>
</g>
<g>
</g>
<g>
</g>
<g>
</g>
<g>
</g>
<g>
</g>
<g>
</g>
</svg>
