<?xml version="1.0" encoding="iso-8859-1"?>
<!-- Generator: Adobe Illustrator 18.0.0, SVG Export Plug-In . SVG Version: 6.00 Build 0)  -->
<!DOCTYPE svg PUBLIC "-//W3C//DTD SVG 1.1//EN" "http://www.w3.org/Graphics/SVG/1.1/DTD/svg11.dtd">
<svg version="1.1" id="Capa_1" xmlns="http://www.w3.org/2000/svg" xmlns:xlink="http://www.w3.org/1999/xlink" x="0px" y="0px"
	 viewBox="0 0 219.488 219.488" style="enable-background:new 0 0 219.488 219.488;" xml:space="preserve">
<path d="M20.145,97.294v77.065h42.297l-28.855,45.129h23.738l28.855-45.129h14.932l28.854,45.129h23.738l-28.855-45.129h42.297
	v-27.716h12.832l24.668,8h14.5v-52.666h-14.5l-24.668,8h-12.832V97.293c12.091-10.106,19.799-25.289,19.799-42.243
	c0-30.355-24.694-55.05-55.049-55.05c-14.539,0-28.12,5.606-38.251,15.436C83.513,5.607,69.932,0,55.395,0
	C25.039,0,0.344,24.695,0.344,55.05C0.344,72.004,8.053,87.188,20.145,97.294z M55.395,20c12.178,0,23.305,6.185,29.764,16.547
	l16.973-0.001C108.589,26.185,119.716,20,131.895,20c19.326,0,35.049,15.723,35.049,35.05c0,19.326-15.723,35.05-35.049,35.05
	c-12.179,0-23.306-6.186-29.764-16.547l-16.973-0.001C78.699,83.913,67.572,90.1,55.395,90.1c-19.327,0-35.051-15.724-35.051-35.05
	C20.344,35.723,36.067,20,55.395,20z"/>
<g>
</g>
<g>
</g>
<g>
</g>
<g>
</g>
<g>
</g>
<g>
</g>
<g>
</g>
<g>
</g>
<g>
</g>
<g>
</g>
<g>
</g>
<g>
</g>
<g>
</g>
<g>
</g>
<g>
</g>
</svg>
